<svg width="1100" height="500" xmlns="http://www.w3.org/2000/svg" aria-label="Flujo con MCM y Sistema desplazados a la derecha con líneas rectas">

  <style>
    .user-head {
      fill: #ffcc99;
      stroke: #cc9966;
      stroke-width: 2;
    }
    .torso-red {
      fill: #ff4d4d;
      stroke: #b30000;
      stroke-width: 2;
      rx: 25;
      ry: 25;
    }
    .torso-green {
      fill: #33cc33;
      stroke: #267326;
      stroke-width: 2;
      rx: 25;
      ry: 25;
    }
    .torso-blue {
      fill: #4da6ff;
      stroke: #005c99;
      stroke-width: 2;
      rx: 25;
      ry: 25;
    }

    .access-point {
      fill: #d6e6fb;
      stroke: #8cb3e6;
      stroke-width: 3;
    }

    .process-circle {
      fill: #f0f5ff;
      stroke: #5a8cd8;
      stroke-width: 3;
    }

    .line-oblique {
      stroke: #cccccc;
      stroke-width: 2;
      stroke-dasharray: 6 4;
    }

    .line-straight {
      stroke: #d6e6fb;
      stroke-width: 3;
    }

    .shape-star {
      fill: #ff0000;
      stroke: #800000;
      stroke-width: 2;
    }

    .shape-hex {
      fill: #00cc00;
      stroke: #006600;
      stroke-width: 2;
    }

    .shape-triangle {
      fill: #3399ff;
      stroke: #003d66;
      stroke-width: 2;
    }

    .circle-red {
      fill: #ff4d4d;
      stroke: #b30000;
      stroke-width: 2;
    }

    .circle-green {
      fill: #33cc33;
      stroke: #267326;
      stroke-width: 2;
    }

    .circle-blue {
      fill: #4da6ff;
      stroke: #005c99;
      stroke-width: 2;
    }

    .system-box {
      fill: #f7f7f7;
      stroke: #a0a0a0;
      stroke-width: 3;
      rx: 10;
      ry: 10;
    }

    text {
      font-family: Arial, sans-serif;
      font-weight: bold;
      font-size: 18px;
      fill: #5b8bd0;
      user-select: none;
    }

    .connector-path {
      fill: none;
      stroke: #d6e6fb;
      stroke-width: 3;
      stroke-linejoin: round;
      stroke-linecap: round;
    }
  </style>

  <!-- Usuarios -->
  <circle cx="80" cy="50" r="15" class="user-head" />
  <rect x="60" y="65" width="40" height="60" class="torso-red" />

  <circle cx="80" cy="170" r="15" class="user-head" />
  <rect x="60" y="185" width="40" height="60" class="torso-green" />

  <circle cx="80" cy="290" r="15" class="user-head" />
  <rect x="60" y="305" width="40" height="60" class="torso-blue" />

  <!-- Punto de acceso -->
  <circle cx="300" cy="180" r="20" class="access-point" />
  <text x="300" y="215" text-anchor="middle">Punto de Acceso</text>

  <!-- Conexiones oblicuas -->
  <line x1="80" y1="125" x2="300" y2="180" class="line-oblique" />
  <line x1="80" y1="245" x2="300" y2="180" class="line-oblique" />
  <line x1="80" y1="365" x2="300" y2="180" class="line-oblique" />

  <!-- Paquetes sobre líneas oblicuas (estrella y triángulo bajados 10px) -->
  <polygon points="190,125 195,140 210,140 198,150 203,165 190,155 177,165 182,150 170,140 185,140" class="shape-star" />
  <polygon points="180,195 195,195 205,210 195,225 180,225 170,210" class="shape-hex" />
  <polygon points="170,285 195,285 182,255" class="shape-triangle" />

  <!-- Línea recta hasta MCB -->
  <line x1="320" y1="180" x2="860" y2="180" class="line-straight" />

  <!-- Punto de transformación -->
  <circle cx="620" cy="180" r="20" class="process-circle" />
  <text x="620" y="215" text-anchor="middle">Transformación</text>

  <!-- Punto MCB -->
  <circle cx="860" cy="180" r="20" class="process-circle" />
  <text x="860" y="215" text-anchor="middle">MCB</text>

  <!-- Datos originales antes de transformación -->
  <polygon points="380,165 385,180 400,180 388,190 393,205 380,195 367,205 372,190 360,180 375,180" class="shape-star" />
  <polygon points="440,165 455,165 465,180 455,195 440,195 430,180" class="shape-hex" />
  <polygon points="490,195 515,195 502,165" class="shape-triangle" />

  <!-- Datos transformados después de transformación -->
  <circle cx="690" cy="180" r="10" class="circle-red" />
  <circle cx="720" cy="180" r="10" class="circle-green" />
  <circle cx="750" cy="180" r="10" class="circle-blue" />

  <!-- Datos después de MCB -->
  <circle cx="810" cy="180" r="10" class="circle-red" />
  <circle cx="840" cy="180" r="10" class="circle-green" />
  <circle cx="870" cy="180" r="10" class="circle-blue" />

  <!-- Línea recta hacia arriba a MCM desplazado a la derecha -->
  <line x1="860" y1="160" x2="940" y2="80" class="line-straight" />

  <circle cx="940" cy="80" r="20" class="process-circle" />
  <text x="940" y="115" text-anchor="middle">MCM</text>

  <!-- Línea recta hacia abajo a Sistema desplazado a la derecha -->
  <line x1="860" y1="200" x2="940" y2="310" class="line-straight" />

  <rect x="910" y="310" width="60" height="40" class="system-box" />
  <text x="940" y="340" text-anchor="middle" fill="#5b8bd0" font-weight="bold" font-family="Arial, sans-serif" font-size="18px">Sistema</text>

</svg>
